<svg width="222" height="160" viewBox="0 0 222 160" fill="none" xmlns="http://www.w3.org/2000/svg">
<path d="M110.4 30.36V130.31M110.4 130.31L193.613 25.718M110.4 130.31L27.186 25.718" stroke="#747474" stroke-width="2"/>
<path d="M111.243 150.553C118.69 150.553 124.727 144.511 124.727 137.057C124.727 129.604 118.69 123.562 111.243 123.562C103.796 123.562 97.7588 129.604 97.7588 137.057C97.7588 144.511 103.796 150.553 111.243 150.553Z" fill="white"/>
<path d="M98.5331 86.1649C85.4531 -1.00308 45.6821 14.5009 27.4321 25.6369C27.5701 25.4679 27.7091 25.2989 27.8511 25.1299C34.4591 17.2219 45.0311 8.28194 57.2691 4.26194C73.8651 -1.19006 93.5231 -0.970047 110.51 26.51C140.291 -21.669 178.285 6.94694 193.588 25.6369C175.337 14.5009 135.566 -1.00308 122.487 86.1649C122.487 86.1649 123.276 97.684 110.51 97.684C97.7431 97.684 98.5331 86.1649 98.5331 86.1649Z" fill="white"/>
<path d="M190.416 38.0137C181.215 27.6477 170.409 32.9976 166.156 36.9686C178.216 43.7256 197.025 71.5367 175.777 128.718C173.406 135.127 174.355 149.993 197.109 158.186C203.94 160.646 208.857 157.844 212.277 151.963C240.411 111 191.756 39.5237 190.416 38.0137Z" fill="white"/>
<path d="M30.6029 37.9231C39.8049 27.5571 50.6109 32.9071 54.8629 36.8781C42.8029 43.6351 23.9949 71.4461 45.2429 128.627C47.6129 135.036 46.6649 149.902 23.9109 158.095C17.0789 160.555 12.1619 157.753 8.74293 151.872C-19.3924 110.909 29.2629 39.4331 30.6029 37.9231Z" fill="white"/>
</svg>
