<svg width="1080" height="1080" viewBox="0 0 1080 1080" fill="none" xmlns="http://www.w3.org/2000/svg">
<rect width="1080" height="1080" fill="black"/>
<path d="M343.271 593.553V458.491H380.418V593.553H343.271ZM410.19 593.553V458.491H445.678L496.651 527.959C497.942 529.866 499.571 532.726 501.538 536.539C504.056 541.459 506.515 546.533 508.912 551.761C507.99 544.688 507.467 539.737 507.344 536.908C506.975 532.48 506.791 528.574 506.791 525.192V458.491H542.094V593.553H506.791L455.818 523.808C455.08 522.824 453.452 519.933 450.932 515.136C448.721 511.2 446.262 506.218 443.558 500.19C444.173 504.988 444.756 509.97 445.309 515.136C445.555 520.917 445.678 524.823 445.678 526.852V593.553H410.19ZM590.579 593.553V490.411H560.345V458.491H657.59V490.411H627.357V593.553H590.579ZM711.328 543.089H747.922L734.189 498.53C733.882 497.73 733.297 495.516 732.437 491.887C731.392 487.644 730.44 483.8 729.579 480.356C728.719 483.492 727.983 486.66 727.367 489.858C726.385 492.933 725.554 495.824 724.878 498.53L711.328 543.089ZM659.803 593.553L706.351 458.491H752.439L799.08 593.553H762.487L755.665 569.382H703.401L696.396 593.553H659.803ZM812.999 593.553V458.491H850.146V593.553H812.999ZM879.919 593.553V458.491H918.355C925.791 458.491 932.06 458.645 937.16 458.952C942.321 459.26 946.562 459.783 949.88 460.521C955.594 461.874 960.694 464.211 965.181 467.532C970.096 471.222 973.814 475.958 976.334 481.739C978.977 487.275 980.297 493.548 980.297 500.56C980.297 510.954 977.716 519.472 972.555 526.114C967.516 532.757 960.049 537.093 950.157 539.122L986.934 593.553H945.363L914.392 540.691V593.553H879.919ZM914.392 522.332H921.213C929.263 522.332 935.07 521.009 938.635 518.365C942.26 515.412 944.072 511.138 944.072 505.541C944.072 498.776 942.383 493.979 939.002 491.149C935.562 488.259 929.816 486.813 921.766 486.813H914.392V522.332Z" fill="white"/>
<path d="M202.4 473.36V573.31M202.4 573.31L285.613 468.718M202.4 573.31L119.186 468.718" stroke="#747474" stroke-width="2"/>
<path d="M203.243 593.553C210.69 593.553 216.727 587.511 216.727 580.057C216.727 572.604 210.69 566.562 203.243 566.562C195.796 566.562 189.759 572.604 189.759 580.057C189.759 587.511 195.796 593.553 203.243 593.553Z" fill="white"/>
<path d="M190.533 529.165C177.453 441.997 137.682 457.501 119.432 468.637C119.57 468.468 119.709 468.299 119.851 468.13C126.459 460.222 137.031 451.282 149.269 447.262C165.865 441.81 185.523 442.03 202.51 469.51C232.291 421.331 270.285 449.947 285.588 468.637C267.337 457.501 227.566 441.997 214.487 529.165C214.487 529.165 215.276 540.684 202.51 540.684C189.743 540.684 190.533 529.165 190.533 529.165Z" fill="white"/>
<path d="M282.416 480.923C273.215 470.557 262.409 475.907 258.156 479.878C270.216 486.635 289.025 514.446 267.777 571.627C265.406 578.036 266.355 592.902 289.109 601.095C295.94 603.555 300.857 600.753 304.277 594.872C332.411 553.909 283.756 482.433 282.416 480.923Z" fill="white"/>
<path d="M122.603 480.923C131.805 470.557 142.611 475.907 146.863 479.878C134.803 486.635 115.995 514.446 137.243 571.627C139.613 578.036 138.665 592.902 115.911 601.095C109.079 603.555 104.162 600.753 100.743 594.872C72.6077 553.909 121.263 482.433 122.603 480.923Z" fill="white"/>
</svg>
