<svg width="895" height="160" viewBox="0 0 895 160" fill="none" xmlns="http://www.w3.org/2000/svg">
<path d="M251.271 150.553V15.491H288.418V150.553H251.271ZM318.19 150.553V15.491H353.678L404.651 84.959C405.942 86.866 407.571 89.726 409.538 93.539C412.056 98.459 414.515 103.533 416.912 108.761C415.99 101.688 415.467 96.737 415.344 93.908C414.975 89.48 414.791 85.574 414.791 82.192V15.491H450.094V150.553H414.791L363.818 80.808C363.08 79.824 361.452 76.933 358.932 72.136C356.721 68.2 354.262 63.218 351.558 57.19C352.173 61.988 352.756 66.97 353.309 72.136C353.555 77.917 353.678 81.823 353.678 83.852V150.553H318.19ZM498.579 150.553V47.411H468.345V15.491H565.59V47.411H535.357V150.553H498.579ZM619.328 100.089H655.922L642.189 55.53C641.882 54.73 641.297 52.516 640.437 48.887C639.392 44.644 638.44 40.8 637.579 37.356C636.719 40.492 635.983 43.66 635.367 46.858C634.385 49.933 633.554 52.824 632.878 55.53L619.328 100.089ZM567.803 150.553L614.351 15.491H660.439L707.08 150.553H670.487L663.665 126.382H611.401L604.396 150.553H567.803ZM720.999 150.553V15.491H758.146V150.553H720.999ZM787.919 150.553V15.491H826.355C833.791 15.491 840.06 15.645 845.16 15.952C850.321 16.26 854.562 16.783 857.88 17.521C863.594 18.874 868.694 21.211 873.181 24.532C878.096 28.222 881.814 32.958 884.334 38.739C886.977 44.275 888.297 50.548 888.297 57.56C888.297 67.954 885.716 76.472 880.555 83.114C875.516 89.757 868.049 94.093 858.157 96.122L894.934 150.553H853.363L822.392 97.6909V150.553H787.919ZM822.392 79.3319H829.213C837.263 79.3319 843.07 78.009 846.635 75.365C850.26 72.412 852.072 68.138 852.072 62.541C852.072 55.776 850.383 50.979 847.002 48.149C843.562 45.259 837.816 43.813 829.766 43.813H822.392V79.3319Z" fill="white"/>
<path d="M110.4 30.36V130.31M110.4 130.31L193.613 25.718M110.4 130.31L27.186 25.718" stroke="#747474" stroke-width="2"/>
<path d="M111.243 150.553C118.69 150.553 124.727 144.511 124.727 137.057C124.727 129.604 118.69 123.562 111.243 123.562C103.796 123.562 97.7588 129.604 97.7588 137.057C97.7588 144.511 103.796 150.553 111.243 150.553Z" fill="white"/>
<path d="M98.5331 86.1649C85.4531 -1.00308 45.6821 14.5009 27.4321 25.6369C27.5701 25.4679 27.7091 25.2989 27.8511 25.1299C34.4591 17.2219 45.0311 8.28194 57.2691 4.26194C73.8651 -1.19006 93.5231 -0.970047 110.51 26.51C140.291 -21.669 178.285 6.94694 193.588 25.6369C175.337 14.5009 135.566 -1.00308 122.487 86.1649C122.487 86.1649 123.276 97.684 110.51 97.684C97.7431 97.684 98.5331 86.1649 98.5331 86.1649Z" fill="white"/>
<path d="M190.416 38.0137C181.215 27.6477 170.409 32.9976 166.156 36.9686C178.216 43.7256 197.025 71.5367 175.777 128.718C173.406 135.127 174.355 149.993 197.109 158.186C203.94 160.646 208.857 157.844 212.277 151.963C240.411 111 191.756 39.5237 190.416 38.0137Z" fill="white"/>
<path d="M30.6029 37.9231C39.8049 27.5571 50.6109 32.9071 54.8629 36.8781C42.8029 43.6351 23.9949 71.4461 45.2429 128.627C47.6129 135.036 46.6649 149.902 23.9109 158.095C17.0789 160.555 12.1619 157.753 8.74293 151.872C-19.3924 110.909 29.2629 39.4331 30.6029 37.9231Z" fill="white"/>
</svg>
